PathFileType	4	(X/Y/Z)	W18_1_OpenSim.trc																																																																																																																						
DataRate	CameraRate	NumFrames	NumMarkers	Units	OrigDataRate	OrigDataStartFrame	OrigNumFrames																																																																																																																		
100	100	6	40	mm	100	1876	3000																																																																																																																		
Frame#	Time	R.ASIS			R.PSIS			S2			L.PSIS			L.ASIS			R.TH1			R.TH2			R.TH3			R.MKnee			R.Knee			R.SH1			R.SH2			R.SH3			R.SH4			R.Ankle			R.MAnkle			R.Heel			R.MT5			R.MT1			L.TH1			L.TH2			L.TH3			L.TH4			L.MKnee			L.Knee			L.SH1			L.SH2			L.SH3			L.Ankle			L.MAnkle			L.Heel			L.MT5			L.MT1			R.Acr			L.Acr			C7			T10			Clav			Sternum			R.Back		
		X1	Y1	Z1	X2	Y2	Z2	X3	Y3	Z3	X4	Y4	Z4	X5	Y5	Z5	X6	Y6	Z6	X7	Y7	Z7	X8	Y8	Z8	X9	Y9	Z9	X10	Y10	Z10	X11	Y11	Z11	X12	Y12	Z12	X13	Y13	Z13	X14	Y14	Z14	X15	Y15	Z15	X16	Y16	Z16	X17	Y17	Z17	X18	Y18	Z18	X19	Y19	Z19	X20	Y20	Z20	X21	Y21	Z21	X22	Y22	Z22	X23	Y23	Z23	X24	Y24	Z24	X25	Y25	Z25	X26	Y26	Z26	X27	Y27	Z27	X28	Y28	Z28	X29	Y29	Z29	X30	Y30	Z30	X31	Y31	Z31	X32	Y32	Z32	X33	Y33	Z33	X34	Y34	Z34	X35	Y35	Z35	X36	Y36	Z36	X37	Y37	Z37	X38	Y38	Z38	X39	Y39	Z39	X40	Y40	Z40
1876	18.75	937.2988	1056.7716	-433.4283	745.3726	1061.0494	-522.8069	737.6302	1058.7806	-567.9453	743.6497	1067.4813	-617.7747	918.9127	1062.2593	-725.3521	989.791	745.6225	-408.038	914.2671	714.8559	-400.3047	955.886	612.9698	-405.029	1016.09	502.8145	-525.8297	1003.5974	510.6691	-406.9972	909.9188	378.7797	-402.9477	837.7608	293.6647	-419.2107	848.2162	433.5138	-402.8345	775.9282	345.8054	-408.9172	678.8605	220.6946	-414.7976	725.1504	208.3823	-504.4933	616.6822	237.4627	-478.7541	724.5018	108.5837	-384.3606	769.765	79.1081	-468.3953	953.509	766.1747	-735.8884	962.3611	658.188	-722.4675	871.0187	755.244	-744.9899	882.6427	647.7103	-723.8768	946.3306	509.3171	-591.7722	945.5801	511.0062	-702.4315	933.1402	375.15	-715.3638	853.1832	391.8247	-725.5651	833.1382	283.945	-716.779	840.644	83.234	-706.7528	872.3502	93.2824	-606.9361	774.8378	44.3968	-649.6604	945.6746	32.7152	-723.9672	987.7275	44.2826	-624.8816	893.7701	1461.4453	-415.282	861.9582	1456.7056	-738.0742	828.4883	1500.4054	-575.2581	780.5412	1172.665	-567.3692	958.1657	1397.8397	-583.7355	982.1526	1257.2194	-576.9673	746.5612	1404.2941	-485.842
1877	18.76	936.6054	1059.2196	-433.5714	744.656	1063.0277	-522.152	736.7876	1060.7163	-567.2545	742.6313	1069.3721	-617.1011	917.6281	1063.6134	-725.4636	994.1256	751.4863	-406.6686	919.1565	718.8089	-400.1645	963.3306	617.9927	-404.6977	1027.6449	509.3657	-525.2185	1014.219	516.4719	-406.5303	926.64	380.2072	-402.6603	858.8934	291.6008	-419.0263	862.2909	431.7314	-403.1489	794.5566	340.5573	-409.2625	703.9561	210.3566	-415.1297	751.7799	200.0696	-504.3997	641.1097	222.1907	-479.8074	756.902	101.7919	-383.3031	804.7161	74.4606	-466.8222	946.9894	765.7217	-735.7733	953.4177	657.5798	-722.567	864.407	756.7116	-745.2198	873.5436	648.8781	-724.3015	933.6356	508.6444	-592.2401	932.3661	510.5354	-702.9948	918.2146	374.8896	-715.9109	838.4717	392.3958	-725.8514	817.3192	284.7264	-716.955	822.9737	83.5339	-706.6524	854.7754	93.4845	-606.9899	756.9837	45.0241	-649.6215	927.6952	32.7507	-724.2019	969.7856	44.3124	-624.8972	892.1006	1462.9367	-414.58	862.6504	1458.9228	-737.5561	828.2101	1502.2261	-575.0955	779.9202	1174.6558	-567.7937	957.7241	1399.7732	-582.8942	981.5913	1259.2277	-576.3173	745.5743	1406.0957	-486.6937
1878	18.77	935.8818	1061.0488	-433.5888	743.9181	1064.4507	-521.3635	735.8877	1062.1132	-566.4352	741.527	1070.7466	-616.2953	916.2404	1064.5935	-725.5956	998.0115	756.8343	-405.3152	923.599	722.4148	-399.874	970.0615	622.6418	-404.3515	1038.2053	515.5678	-524.6439	1023.9515	521.9123	-406.1006	943.1912	381.1776	-402.1815	880.2544	289.1115	-418.5943	876.1625	429.1443	-403.0978	813.4546	334.5151	-409.1302	730.1838	199.1426	-414.7914	779.0723	191.2087	-503.7721	666.7842	206.1282	-479.8702	790.2767	94.6277	-381.9299	840.1807	69.805	-465.1551	940.341	765.0811	-735.5561	944.2754	656.9023	-722.4459	857.704	757.9902	-745.4118	864.3723	649.9305	-724.6359	920.7682	507.9634	-592.6082	919.0294	510.0765	-703.4869	903.1974	374.6442	-716.3544	823.6937	392.9579	-726.0299	801.4631	285.5006	-717.0295	805.3242	83.8464	-706.4428	837.2248	93.6498	-606.9819	739.1756	45.6504	-649.5296	909.7322	32.8001	-724.3813	951.8551	44.3501	-624.889	890.5819	1464.0372	-413.8983	863.3962	1460.7616	-736.9937	827.9473	1503.6654	-574.8859	779.2964	1176.2251	-568.1033	957.3116	1401.3142	-582.0691	981.0515	1260.8125	-575.7036	744.6841	1407.5592	-487.442
1879	18.78	935.1942	1062.2647	-433.5562	743.1929	1065.3318	-520.4506	734.9524	1062.9858	-565.4993	740.3541	1071.6185	-615.3685	914.7632	1065.162	-725.7308	1001.4547	761.585	-404.0575	927.6162	725.5944	-399.4338	976.0986	626.8195	-403.9984	1047.6586	521.2623	-524.1278	1032.7633	526.8859	-405.7241	959.5258	381.7129	-401.5298	901.8077	286.2782	-417.9006	889.858	425.772	-402.6886	832.6262	327.7867	-408.5344	757.5435	187.2732	-413.8003	807.0489	181.9818	-502.6343	693.7385	189.4713	-479.0102	824.5951	87.3183	-380.2451	876.1571	65.3385	-463.3625	933.5875	764.2415	-735.2434	934.9477	656.1316	-722.1159	850.9207	759.0662	-745.5601	855.1323	650.8556	-724.8708	907.7613	507.27	-592.8821	905.6069	509.6237	-703.895	888.1257	374.4066	-716.6845	808.8827	393.5067	-726.1076	785.59	286.2684	-717.0138	787.6975	84.166	-706.1329	819.6854	93.7755	-606.915	721.432	46.2616	-649.3799	891.7893	32.8653	-724.4962	933.9371	44.4027	-624.865	889.2265	1464.7111	-413.233	864.1666	1462.1847	-736.3925	827.7056	1504.7004	-574.6314	778.675	1177.3507	-568.3001	956.9307	1402.4266	-581.2653	980.54	1261.9364	-575.122	743.889	1408.6597	-488.0862
1880	18.79	934.5987	1062.9114	-433.5345	742.5127	1065.7133	-519.4297	734.011	1063.3749	-564.4626	739.1355	1072.0262	-614.3362	913.2155	1065.2953	-725.8453	1004.4674	765.6668	-402.9595	931.2194	728.2912	-398.8607	981.4551	630.442	-403.6445	1055.9011	526.2922	-523.6743	1040.6327	531.2924	-405.4069	975.5949	381.8421	-400.7343	923.5219	283.1856	-416.9511	903.3994	421.644	-401.9373	852.0782	320.4852	-407.5059	786.0163	174.9931	-412.2123	835.7389	172.5664	-501.0289	722.0116	172.4241	-477.3481	859.8024	80.1243	-378.2534	912.6379	61.267	-461.4006	926.7649	763.2083	-734.8506	925.4741	655.243	-721.6267	844.0754	759.9363	-745.6702	845.8277	651.6486	-725.0175	894.6689	506.5554	-593.0884	892.1323	509.1715	-704.2141	873.0305	374.1733	-716.9111	794.0593	394.0455	-726.0947	769.7079	287.0374	-716.9202	770.0913	84.498	-705.7524	802.1511	93.8649	-606.7938	703.7471	46.8611	-649.1761	873.8611	32.9454	-724.5488	916.0408	44.4706	-624.8362	888.0385	1464.9357	-412.5763	864.9353	1463.1666	-735.7566	827.4924	1505.3147	-574.3325	778.0586	1178.0245	-568.3873	956.5878	1403.0821	-580.4788	980.0687	1262.5725	-574.5615	743.1838	1409.375	-488.6283
1881	18.8	934.1408	1063.0533	-433.558	741.9017	1065.6593	-518.3199	733.0978	1063.3373	-563.3418	737.8979	1072.0232	-613.2165	911.6191	1064.9855	-725.9157	1007.0669	769.0167	-402.0585	934.4057	730.4634	-398.1886	986.1316	633.435	-403.2963	1062.8522	530.5146	-523.275	1047.5442	535.036	-405.1504	991.3461	381.5998	-399.8315	945.3579	279.9292	-415.7705	916.8011	416.8013	-400.8701	871.8171	312.7288	-406.0901	815.5613	162.569	-410.1172	865.1541	163.1462	-499.0192	751.6308	155.2092	-475.0283	895.822	73.3347	-375.9638	949.5967	57.808	-459.2339	919.9043	761.9951	-734.4031	915.9108	654.2191	-721.0505	837.1859	760.6052	-745.7561	836.467	652.3113	-725.0979	881.562	505.8077	-593.266	878.6421	508.7164	-704.447	857.9396	373.9435	-717.0555	779.2393	394.5838	-726.0017	753.8201	287.8221	-716.7603	752.5005	84.8573	-705.3396	784.6271	93.931	-606.6228	686.0998	47.4667	-648.9258	855.9402	33.0378	-724.5486	898.1765	44.5478	-624.8108	887.0146	1464.7008	-411.9196	865.6805	1463.6931	-735.0896	827.3164	1505.4985	-573.9869	777.4497	1178.25	-568.3682	956.2922	1403.2607	-579.7026	979.6509	1262.7041	-574.0087	742.5634	1409.6843	-489.0709
